<svg data-v-423bf9ae="" xmlns="http://www.w3.org/2000/svg" viewBox="0 0 329 90" class="iconLeft"><!----><!----><!----><g data-v-423bf9ae="" id="b649259c-1f84-4ebd-82b5-c6e6aa98a32e" fill="white" transform="matrix(4.6692612548425885,0,0,4.6692612548425885,105.75151438586947,-3.817122406154155)"><path d="M2.44 4.33L3.83 4.33L3.83 11.57Q3.83 11.98 3.82 12.25Q3.81 12.52 3.79 12.85Q3.77 13.19 3.72 13.40Q3.66 13.60 3.58 13.84Q3.50 14.07 3.37 14.21Q3.25 14.34 3.07 14.46Q2.89 14.58 2.65 14.63Q2.41 14.68 2.11 14.68L2.11 14.68Q1.29 14.68 0.49 14.32L0.49 14.32L0.63 13.27Q1.26 13.51 1.69 13.51L1.69 13.51Q2.13 13.51 2.29 13.23Q2.44 12.95 2.44 12.42L2.44 12.42L2.44 4.33ZM11.94 7.02L11.94 14.53L10.69 14.53L10.57 13.56Q10.39 14.10 9.79 14.36Q9.19 14.62 8.33 14.62L8.33 14.62Q7.75 14.62 7.34 14.51Q6.94 14.39 6.67 14.17Q6.40 13.95 6.25 13.55Q6.10 13.15 6.05 12.65Q5.99 12.15 5.99 11.42L5.99 11.42L5.99 7.02L7.33 7.02L7.33 11.38Q7.33 11.53 7.33 11.78Q7.33 12.04 7.33 12.14L7.33 12.14Q7.33 12.50 7.34 12.71Q7.36 12.91 7.41 13.11Q7.47 13.31 7.57 13.40Q7.66 13.49 7.85 13.57Q8.05 13.64 8.30 13.67Q8.54 13.69 8.93 13.69L8.93 13.69Q9.37 13.69 9.68 13.62Q9.99 13.56 10.17 13.46Q10.34 13.36 10.44 13.19Q10.53 13.02 10.55 12.86Q10.58 12.69 10.58 12.45L10.58 12.45Q10.58 12.37 10.58 12.18Q10.58 12.00 10.58 11.90L10.58 11.90L10.58 7.02L11.94 7.02ZM17.38 6.85L17.38 6.85L17.32 7.99Q17.06 7.96 16.83 7.96L16.83 7.96Q16.34 7.96 16.04 8.05Q15.74 8.15 15.59 8.38Q15.44 8.61 15.38 8.91Q15.33 9.21 15.33 9.71L15.33 9.71Q15.33 9.99 15.36 10.53Q15.38 11.07 15.38 11.30L15.38 11.30L15.38 14.52L14.03 14.52L14.03 7.02L15.26 7.02L15.39 7.86Q15.61 7.37 16.04 7.10Q16.47 6.83 17.07 6.83L17.07 6.83Q17.22 6.83 17.38 6.85ZM23.35 7.02L24.73 7.02L22.36 14.16Q22.27 14.42 22.17 14.78Q22.07 15.15 22.01 15.37Q21.94 15.60 21.84 15.87Q21.75 16.14 21.63 16.30Q21.51 16.46 21.34 16.61Q21.17 16.75 20.93 16.82Q20.69 16.88 20.38 16.88L20.38 16.88Q19.56 16.88 18.90 16.73L18.90 16.73L19.11 15.69Q19.24 15.70 19.46 15.74Q19.67 15.78 19.83 15.80Q20.00 15.82 20.13 15.82L20.13 15.82Q20.57 15.82 20.79 15.52Q21.02 15.22 21.03 14.40L21.03 14.40L18.22 7.02L19.58 7.02L20.96 10.83Q21.33 11.87 21.66 12.79L21.66 12.79Q21.88 11.96 22.32 10.51L22.32 10.51L23.35 7.02ZM32.21 10.34L32.21 10.34Q32.21 10.86 32.20 11.20Q32.20 11.55 32.18 11.95Q32.16 12.35 32.12 12.61Q32.07 12.87 32.01 13.16Q31.94 13.45 31.83 13.62Q31.73 13.80 31.59 13.99Q31.45 14.17 31.25 14.27Q31.06 14.38 30.82 14.46Q30.57 14.55 30.26 14.59Q29.96 14.62 29.58 14.62L29.58 14.62Q27.79 14.62 27.40 13.58L27.40 13.58L27.28 14.52L26.04 14.52L26.04 4.14L27.39 4.03L27.39 7.85Q27.62 7.31 28.12 7.06Q28.62 6.81 29.47 6.81L29.47 6.81Q29.93 6.81 30.31 6.87Q30.68 6.92 30.96 7.05Q31.23 7.18 31.44 7.35Q31.64 7.51 31.78 7.76Q31.92 8.00 32.00 8.26Q32.09 8.51 32.14 8.87Q32.18 9.23 32.20 9.56Q32.21 9.88 32.21 10.34ZM30.87 12.13L30.86 9.32Q30.86 9.02 30.86 8.88Q30.86 8.73 30.83 8.53Q30.81 8.33 30.77 8.25Q30.73 8.17 30.64 8.06Q30.56 7.94 30.44 7.90Q30.32 7.86 30.13 7.82Q29.94 7.77 29.71 7.76Q29.48 7.75 29.15 7.75L29.15 7.75Q28.46 7.75 28.07 7.85Q27.69 7.95 27.51 8.18L27.51 8.18Q27.39 8.42 27.39 9.24L27.39 9.24L27.39 12.68Q27.39 13.24 27.79 13.46Q28.18 13.69 29.16 13.69L29.16 13.69Q30.12 13.69 30.48 13.51L30.48 13.51Q30.87 13.38 30.87 12.13L30.87 12.13ZM39.99 10.66L39.99 10.66Q39.17 10.75 38.97 10.76L38.97 10.76L35.25 10.76Q35.25 11.75 35.30 12.93L35.30 12.93Q35.33 13.39 35.69 13.54Q36.05 13.69 37.09 13.69L37.09 13.69Q37.48 13.69 37.76 13.65Q38.04 13.62 38.22 13.55Q38.39 13.47 38.49 13.40Q38.59 13.32 38.64 13.17Q38.68 13.02 38.70 12.91Q38.71 12.80 38.73 12.59Q38.74 12.37 38.76 12.24L38.76 12.24L39.81 12.43Q39.79 12.91 39.74 13.24Q39.68 13.57 39.55 13.82Q39.42 14.08 39.25 14.22Q39.07 14.37 38.77 14.46Q38.47 14.56 38.10 14.59Q37.74 14.62 37.21 14.62L37.21 14.62Q36.52 14.62 36.02 14.54Q35.51 14.46 35.15 14.35Q34.79 14.23 34.56 13.97Q34.33 13.71 34.20 13.47Q34.06 13.23 34.00 12.76Q33.94 12.30 33.92 11.92Q33.91 11.54 33.91 10.87L33.91 10.87Q33.91 9.93 33.93 9.40Q33.95 8.87 34.06 8.34Q34.17 7.81 34.36 7.57Q34.54 7.33 34.90 7.13Q35.27 6.92 35.76 6.87Q36.25 6.81 37.01 6.81L37.01 6.81Q37.54 6.81 37.92 6.84Q38.30 6.87 38.62 6.97Q38.94 7.06 39.15 7.18Q39.36 7.31 39.52 7.55Q39.68 7.79 39.77 8.04Q39.85 8.30 39.91 8.72Q39.96 9.15 39.98 9.58Q39.99 10.01 39.99 10.66ZM35.25 10.04L35.25 10.04L38.64 10.04Q38.63 9.17 38.58 8.44L38.58 8.44Q38.55 8.03 38.22 7.89Q37.88 7.75 37.00 7.75L37.00 7.75Q36.03 7.75 35.77 7.85L35.77 7.85Q35.65 7.89 35.56 7.97Q35.48 8.06 35.42 8.22Q35.37 8.37 35.34 8.51Q35.31 8.65 35.29 8.89Q35.27 9.13 35.27 9.27Q35.26 9.40 35.26 9.67Q35.25 9.95 35.25 10.04ZM47.69 10.66L47.69 10.66Q46.87 10.75 46.68 10.76L46.68 10.76L42.95 10.76Q42.96 11.75 43.00 12.93L43.00 12.93Q43.04 13.39 43.40 13.54Q43.76 13.69 44.80 13.69L44.80 13.69Q45.19 13.69 45.47 13.65Q45.75 13.62 45.92 13.55Q46.09 13.47 46.19 13.40Q46.29 13.32 46.34 13.17Q46.39 13.02 46.40 12.91Q46.42 12.80 46.43 12.59Q46.44 12.37 46.46 12.24L46.46 12.24L47.51 12.43Q47.50 12.91 47.44 13.24Q47.39 13.57 47.26 13.82Q47.13 14.08 46.95 14.22Q46.77 14.37 46.47 14.46Q46.17 14.56 45.81 14.59Q45.45 14.62 44.91 14.62L44.91 14.62Q44.23 14.62 43.72 14.54Q43.22 14.46 42.86 14.35Q42.50 14.23 42.27 13.97Q42.03 13.71 41.90 13.47Q41.77 13.23 41.71 12.76Q41.64 12.30 41.63 11.92Q41.61 11.54 41.61 10.87L41.61 10.87Q41.61 9.93 41.63 9.40Q41.66 8.87 41.77 8.34Q41.88 7.81 42.06 7.57Q42.25 7.33 42.61 7.13Q42.97 6.92 43.46 6.87Q43.96 6.81 44.71 6.81L44.71 6.81Q45.24 6.81 45.62 6.84Q46.01 6.87 46.33 6.97Q46.65 7.06 46.86 7.18Q47.07 7.31 47.23 7.55Q47.39 7.79 47.47 8.04Q47.56 8.30 47.61 8.72Q47.67 9.15 47.68 9.58Q47.69 10.01 47.69 10.66ZM42.96 10.04L42.96 10.04L46.35 10.04Q46.33 9.17 46.28 8.44L46.28 8.44Q46.25 8.03 45.92 7.89Q45.59 7.75 44.71 7.75L44.71 7.75Q43.73 7.75 43.47 7.85L43.47 7.85Q43.35 7.89 43.27 7.97Q43.18 8.06 43.13 8.22Q43.07 8.37 43.04 8.51Q43.01 8.65 42.99 8.89Q42.98 9.13 42.97 9.27Q42.96 9.40 42.96 9.67Q42.96 9.95 42.96 10.04Z"></path></g><!----><g data-v-423bf9ae="" id="b8bdda28-1bc9-4702-a340-1d0c8478ee06" transform="matrix(1.3064385106808298,0,0,1.3064385106808298,-21.001050990507252,-19.828003356446303)" stroke="none" fill="white"><path d="M38.7 50.3c-.3-.7-.1-1.8.3-2.5l5.3-6.9c.5-.6 1.5-1.1 2.3-.9l8.7 1.2c.8.1 1.7.8 2 1.5l3.3 8.1c.3.7.1 1.8-.3 2.5L55 60.2c-.5.6-1.5 1.1-2.3.9L44 59.9c-.8-.1-1.7-.8-2-1.5l-3.3-8.1zM58.1 63.9c-.3-.7-.1-1.8.3-2.5l5.4-6.9c.5-.6 1.5-1.1 2.3-.9l8.7 1.2c.8.1 1.7.8 2 1.5l3.3 8.1c.3.7.1 1.8-.3 2.5l-5.3 6.9c-.5.6-1.5 1.1-2.3.9l-8.7-1.2c-.8-.1-1.7-.8-2-1.5l-3.4-8.1zM19.6 34.6c-.3-.7-.2-1.8.3-2.5l5.3-6.9c.5-.6 1.5-1.1 2.3-.9l8.7 1.2c.8.1 1.7.8 2 1.5l3.3 8.1c.3.7.1 1.8-.3 2.5L36 44.3c-.5.6-1.5 1.1-2.3 1L25 44.2c-.8-.1-1.7-.8-2-1.5l-3.4-8.1zM42.1 26.1c-.3-.7-.1-1.8.3-2.5l5.4-6.9c.5-.6 1.5-1.1 2.3-.9l8.7 1.2c.8.1 1.7.8 2 1.5l3.3 8.1c.3.7.1 1.8-.3 2.5L58.4 36c-.5.6-1.5 1.1-2.3.9l-8.7-1.2c-.8-.1-1.7-.8-2-1.5l-3.3-8.1zM61.6 40c-.3-.7-.1-1.8.3-2.5l5.3-6.9c.5-.6 1.5-1.1 2.3-.9l8.7 1.2c.8.1 1.7.8 2 1.5l3.3 8.1c.3.7.1 1.8-.3 2.5l-5.4 6.9c-.5.6-1.5 1.1-2.3.9l-8.7-1.2c-.8-.1-1.7-.8-2-1.5L61.6 40zM16.4 58.5c-.3-.7-.1-1.8.3-2.5l5.3-6.9c.5-.6 1.5-1.1 2.3-.9l8.7 1.2c.8.1 1.7.8 2 1.5l3.3 8.1c.3.7.1 1.8-.3 2.5l-5.3 6.9c-.5.6-1.5 1.1-2.3.9l-8.7-1.2c-.8-.1-1.7-.8-2-1.5l-3.3-8.1zM35.3 73.8c-.3-.7-.1-1.8.3-2.5l5.4-6.9c.5-.6 1.5-1.1 2.3-.9l8.7 1.2c.8.1 1.7.8 2 1.5l3.3 8.1c.3.7.1 1.8-.3 2.5l-5.4 6.9c-.5.6-1.5 1.1-2.3.9l-8.7-1.2c-.8-.1-1.7-.8-2-1.5l-3.3-8.1z"></path></g><!----></svg>